<svg id="Calque_1" data-name="Calque 1" xmlns="http://www.w3.org/2000/svg" viewBox="0 0 400.68 114.26"><defs><style>.cls-1{fill:#2f6239;}.cls-2{fill:#9dcb87;}.cls-3{font-size:47px;fill:#fff;font-family:TwCenMT-CondensedExtraBold, Tw Cen MT Condensed Extra Bold;font-weight:800;}</style></defs><polygon class="cls-1" points="18.4 114.26 0 104.26 0 56.66 32.2 38.36 49.8 78.06 32.9 75.36 18.4 114.26"/><polygon class="cls-2" points="1.9 48.86 35.4 29.26 57.1 78.16 72.9 78.16 49 12.36 14.6 18.06 1.9 48.86"/><polygon class="cls-1" points="133.4 114.26 151.8 104.26 151.8 56.66 119.6 38.36 102.1 78.06 118.9 75.36 133.4 114.26"/><polygon class="cls-2" points="150.1 48.86 116.6 29.26 94.8 78.16 79 78.16 103 12.36 137.4 18.06 150.1 48.86"/><polygon class="cls-1" points="75.9 66.86 95.7 12.26 75.9 12.26 56.1 12.26 75.9 66.86"/><text class="cls-3" transform="translate(169.38 41.01)">HAPPY<tspan class="cls-1"><tspan x="0" y="56.4">GAMES</tspan></tspan></text></svg>